<mxfile host="app.diagrams.net" agent="Mozilla/5.0 (Macintosh; Intel Mac OS X 10_15_7) AppleWebKit/537.36 (KHTML, like Gecko) Chrome/139.0.0.0 Safari/537.36" version="28.2.6">
  <diagram name="第 1 页" id="kBypOAfSZk1u6mrDPFoE">
    <mxGraphModel dx="651" dy="442" grid="1" gridSize="10" guides="1" tooltips="1" connect="1" arrows="1" fold="1" page="1" pageScale="1" pageWidth="827" pageHeight="1169" math="0" shadow="0">
      <root>
        <mxCell id="0" />
        <mxCell id="1" parent="0" />
        <mxCell id="DNIy30dWIXp-kNTNznPd-1" value="" style="shape=image;verticalLabelPosition=bottom;labelBackgroundColor=default;verticalAlign=top;aspect=fixed;imageAspect=0;editableCssRules=.*;image=data:image/svg+xml,PHN2ZyB4bWxuczp4bGluaz0iaHR0cDovL3d3dy53My5vcmcvMTk5OS94bGluayIgeG1sbnM9Imh0dHA6Ly93d3cudzMub3JnLzIwMDAvc3ZnIiBvdmVyZmxvdz0iaGlkZGVuIiB4bWw6c3BhY2U9InByZXNlcnZlIiBoZWlnaHQ9IjY5Ni41IiB3aWR0aD0iNjMzLjUiIHZpZXdCb3g9IjEgMCA2MzMuNSA2OTYuNSI+PGcgdHJhbnNmb3JtPSJ0cmFuc2xhdGUoLTE2NSAtOTU4KSI+PHBhdGggZmlsbC1ydWxlPSJldmVub2RkIiBmaWxsPSIjRjZFNUQ4IiBzdHJva2UtbWl0ZXJsaW1pdD0iOCIgc3Ryb2tlLXdpZHRoPSIzIiBzdHJva2U9IiNGNEIxODMiIGQ9Ik0xNjcuNSAxMDA3LjMzQzE2Ny41IDk4Mi41NzMgMTg3LjU3MyA5NjIuNSAyMTIuMzM0IDk2Mi41TDM5MS42NjYgOTYyLjVDNDE2LjQyNyA5NjIuNSA0MzYuNSA5ODIuNTczIDQzNi41IDEwMDcuMzNMNDM2LjUgMTE5Ny42N0M0MzYuNSAxMjIyLjQzIDQxNi40MjcgMTI0Mi41IDM5MS42NjYgMTI0Mi41TDIxMi4zMzQgMTI0Mi41QzE4Ny41NzMgMTI0Mi41IDE2Ny41IDEyMjIuNDMgMTY3LjUgMTE5Ny42N1oiLz48dGV4dCB0cmFuc2Zvcm09InRyYW5zbGF0ZSgxOTQuMjI0IDEwMTIpIiBmb250LXNpemU9IjMyIiBmb250LXdlaWdodD0iNDAwIiBmb250LWZhbWlseT0iQ29taWMgU2FucyBNUyxDb21pYyBTYW5zIE1TX01TRm9udFNlcnZpY2Usc2Fucy1zZXJpZiI+SW1hZ2UgR2FsbGVyeTwvdGV4dD48cGF0aCBmaWxsLXJ1bGU9ImV2ZW5vZGQiIGZpbGw9IiNGQkY4RTkiIHN0cm9rZS1taXRlcmxpbWl0PSI4IiBzdHJva2Utd2lkdGg9IjEuMzMzMzMiIHN0cm9rZT0iI0ZGRDk2NiIgZD0iTTIwOS41IDEwNTcuNjdDMjA5LjUgMTA0OS44NCAyMTUuODQzIDEwNDMuNSAyMjMuNjY3IDEwNDMuNUwyODAuMzMzIDEwNDMuNUMyODguMTU3IDEwNDMuNSAyOTQuNSAxMDQ5Ljg0IDI5NC41IDEwNTcuNjdMMjk0LjUgMTExOC4zM0MyOTQuNSAxMTI2LjE2IDI4OC4xNTcgMTEzMi41IDI4MC4zMzMgMTEzMi41TDIyMy42NjcgMTEzMi41QzIxNS44NDMgMTEzMi41IDIwOS41IDExMjYuMTYgMjA5LjUgMTExOC4zM1oiLz48cGF0aCBmaWxsLXJ1bGU9ImV2ZW5vZGQiIGZpbGw9IiNGQkY4RTkiIHN0cm9rZS1taXRlcmxpbWl0PSI4IiBzdHJva2Utd2lkdGg9IjEuMzMzMzMiIHN0cm9rZT0iI0ZGRDk2NiIgZD0iTTIyNS41IDEwNzMuNjdDMjI1LjUgMTA2NS44NCAyMzEuODQzIDEwNTkuNSAyMzkuNjY3IDEwNTkuNUwyOTYuMzMzIDEwNTkuNUMzMDQuMTU3IDEwNTkuNSAzMTAuNSAxMDY1Ljg0IDMxMC41IDEwNzMuNjdMMzEwLjUgMTEzNC4zM0MzMTAuNSAxMTQyLjE2IDMwNC4xNTcgMTE0OC41IDI5Ni4zMzMgMTE0OC41TDIzOS42NjcgMTE0OC41QzIzMS44NDMgMTE0OC41IDIyNS41IDExNDIuMTYgMjI1LjUgMTEzNC4zM1oiLz48cGF0aCBmaWxsLXJ1bGU9ImV2ZW5vZGQiIGZpbGw9IiNGQkY4RTkiIHN0cm9rZS1taXRlcmxpbWl0PSI4IiBzdHJva2Utd2lkdGg9IjEuMzMzMzMiIHN0cm9rZT0iI0ZGRDk2NiIgZD0iTTI0MS41IDEwODkuNjdDMjQxLjUgMTA4MS44NCAyNDcuODQzIDEwNzUuNSAyNTUuNjY3IDEwNzUuNUwzMTIuMzMzIDEwNzUuNUMzMjAuMTU3IDEwNzUuNSAzMjYuNSAxMDgxLjg0IDMyNi41IDEwODkuNjdMMzI2LjUgMTE1MC4zM0MzMjYuNSAxMTU4LjE2IDMyMC4xNTcgMTE2NC41IDMxMi4zMzMgMTE2NC41TDI1NS42NjcgMTE2NC41QzI0Ny44NDMgMTE2NC41IDI0MS41IDExNTguMTYgMjQxLjUgMTE1MC4zM1oiLz48cGF0aCBmaWxsLXJ1bGU9ImV2ZW5vZGQiIGZpbGw9IiNGQkY4RTkiIHN0cm9rZS1taXRlcmxpbWl0PSI4IiBzdHJva2Utd2lkdGg9IjEuMzMzMzMiIHN0cm9rZT0iI0ZGRDk2NiIgZD0iTTMyNC41IDExNDIuNjdDMzI0LjUgMTEzNC44NCAzMzAuODQzIDExMjguNSAzMzguNjY3IDExMjguNUwzOTUuMzMzIDExMjguNUM0MDMuMTU3IDExMjguNSA0MDkuNSAxMTM0Ljg0IDQwOS41IDExNDIuNjdMNDA5LjUgMTIwMy4zM0M0MDkuNSAxMjExLjE2IDQwMy4xNTcgMTIxNy41IDM5NS4zMzMgMTIxNy41TDMzOC42NjcgMTIxNy41QzMzMC44NDMgMTIxNy41IDMyNC41IDEyMTEuMTYgMzI0LjUgMTIwMy4zM1oiLz48dGV4dCB0cmFuc2Zvcm09InRyYW5zbGF0ZSgyOTMuMjQ1IDExODQpIiBmb250LXNpemU9IjMyIiBmb250LXdlaWdodD0iNDAwIiBmb250LWZhbWlseT0iQ2FsaWJyaSxDYWxpYnJpX01TRm9udFNlcnZpY2Usc2Fucy1zZXJpZiI+4oCmPC90ZXh0PjxwYXRoIGZpbGwtcnVsZT0iZXZlbm9kZCIgZmlsbD0ibm9uZSIgc3Ryb2tlLW1pdGVybGltaXQ9IjgiIHN0cm9rZS13aWR0aD0iMyIgc3Ryb2tlPSIjMDAwMDAwIiBkPSJNMjk5LjUgMTI1OC41IDI5OS41IDEyOTkuOTgiLz48cGF0aCBmaWxsLXJ1bGU9ImV2ZW5vZGQiIGZpbGw9IiNFRkUxRTEiIHN0cm9rZS1taXRlcmxpbWl0PSI4IiBzdHJva2Utd2lkdGg9IjMiIHN0cm9rZT0iI0Y1Q0REMyIgZD0iTTE2Ny41IDEzMjIuODNDMTY3LjUgMTMxNC4zNyAxNzQuMzY1IDEzMDcuNSAxODIuODM0IDEzMDcuNUw0MjEuMTY2IDEzMDcuNUM0MjkuNjM1IDEzMDcuNSA0MzYuNSAxMzE0LjM3IDQzNi41IDEzMjIuODNMNDM2LjUgMTM4NC4xN0M0MzYuNSAxMzkyLjYzIDQyOS42MzUgMTM5OS41IDQyMS4xNjYgMTM5OS41TDE4Mi44MzQgMTM5OS41QzE3NC4zNjUgMTM5OS41IDE2Ny41IDEzOTIuNjMgMTY3LjUgMTM4NC4xN1oiLz48dGV4dCB0cmFuc2Zvcm09InRyYW5zbGF0ZSgyMTIuNzI0IDEzNDUpIiBmb250LXNpemU9IjMyIiBmb250LXdlaWdodD0iNDAwIiBmb250LWZhbWlseT0iQ29taWMgU2FucyBNUyxDb21pYyBTYW5zIE1TX01TRm9udFNlcnZpY2Usc2Fucy1zZXJpZiI+RGV0ZWN0aW9uICZhbXA7IDwvdGV4dD48dGV4dCB0cmFuc2Zvcm09InRyYW5zbGF0ZSgyMTUuODkgMTM4NCkiIGZvbnQtc2l6ZT0iMzIiIGZvbnQtd2VpZ2h0PSI0MDAiIGZvbnQtZmFtaWx5PSJDb21pYyBTYW5zIE1TLENvbWljIFNhbnMgTVNfTVNGb250U2VydmljZSxzYW5zLXNlcmlmIj5SZWNvZ25pdGlvbjwvdGV4dD48cGF0aCBkPSJNMzAyIDE0MDYuNSAzMDIgMTQ1NC4yIDI5OSAxNDU0LjIgMjk5IDE0MDYuNVpNMzA3LjA0NiAxNDQ1Ljk1IDMwMC41IDE0NTcuMTcgMjkzLjk1NCAxNDQ1Ljk1QzI5My41MzcgMTQ0NS4yNCAyOTMuNzc5IDE0NDQuMzIgMjk0LjQ5NCAxNDQzLjkgMjk1LjIxIDE0NDMuNDggMjk2LjEyOCAxNDQzLjczIDI5Ni41NDYgMTQ0NC40NEwzMDEuNzk2IDE0NTMuNDQgMjk5LjIwNCAxNDUzLjQ0IDMwNC40NTQgMTQ0NC40NEMzMDQuODcyIDE0NDMuNzMgMzA1Ljc5IDE0NDMuNDggMzA2LjUwNiAxNDQzLjkgMzA3LjIyMiAxNDQ0LjMyIDMwNy40NjMgMTQ0NS4yNCAzMDcuMDQ2IDE0NDUuOTVaIi8+PHBhdGggZmlsbC1ydWxlPSJldmVub2RkIiBmaWxsPSIjREVFQkY3IiBzdHJva2UtbWl0ZXJsaW1pdD0iOCIgc3Ryb2tlLXdpZHRoPSIzIiBzdHJva2U9IiMxQkExRTIiIGQ9Ik0xNjcuNSAxNDk0LjE3QzE2Ny41IDE0NzcuMjMgMTgxLjIzIDE0NjMuNSAxOTguMTY3IDE0NjMuNUw0MDUuODMzIDE0NjMuNUM0MjIuNzcgMTQ2My41IDQzNi41IDE0NzcuMjMgNDM2LjUgMTQ5NC4xN0w0MzYuNSAxNjE2LjgzQzQzNi41IDE2MzMuNzcgNDIyLjc3IDE2NDcuNSA0MDUuODMzIDE2NDcuNUwxOTguMTY3IDE2NDcuNUMxODEuMjMgMTY0Ny41IDE2Ny41IDE2MzMuNzcgMTY3LjUgMTYxNi44M1oiLz48dGV4dCB0cmFuc2Zvcm09InRyYW5zbGF0ZSgxODQuMjIxIDE1MDIpIiBmb250LXNpemU9IjMyIiBmb250LXdlaWdodD0iNDAwIiBmb250LWZhbWlseT0iQ29taWMgU2FucyBNUyxDb21pYyBTYW5zIE1TX01TRm9udFNlcnZpY2Usc2Fucy1zZXJpZiI+RXh0cmFjdGVkIFRleHQ8L3RleHQ+PHBhdGggZmlsbC1ydWxlPSJldmVub2RkIiBmaWxsPSIjRTJGMUQ5IiBzdHJva2UtbWl0ZXJsaW1pdD0iOCIgc3Ryb2tlLXdpZHRoPSIzIiBzdHJva2U9IiM5MkQwNTAiIGQ9Ik0zMjcgMTUxMS41QzMzMC4wMzggMTUxMS41IDMzMi41IDE1MTMuOTYgMzMyLjUgMTUxN0wzMzIuNSAxNTM5QzMzMi41IDE1NDIuMDQgMzMwLjAzOCAxNTQ0LjUgMzI3IDE1NDQuNUwyMDcgMTU0NC41QzIwMy45NjMgMTU0NC41IDIwMS41IDE1NDIuMDQgMjAxLjUgMTUzOUwyMDEuNSAxNTE3QzIwMS41IDE1MTMuOTYgMjAzLjk2MyAxNTExLjUgMjA3IDE1MTEuNVoiLz48cGF0aCBmaWxsLXJ1bGU9ImV2ZW5vZGQiIGZpbGw9IiNFMkYxRDkiIHN0cm9rZS1taXRlcmxpbWl0PSI4IiBzdHJva2Utd2lkdGg9IjMiIHN0cm9rZT0iIzkyRDA1MCIgZD0iTTM0OCAxNTMwLjVDMzUxLjAzOCAxNTMwLjUgMzUzLjUgMTUzMi45NiAzNTMuNSAxNTM2TDM1My41IDE1NThDMzUzLjUgMTU2MS4wNCAzNTEuMDM4IDE1NjMuNSAzNDggMTU2My41TDIyOCAxNTYzLjVDMjI0Ljk2MyAxNTYzLjUgMjIyLjUgMTU2MS4wNCAyMjIuNSAxNTU4TDIyMi41IDE1MzZDMjIyLjUgMTUzMi45NiAyMjQuOTYzIDE1MzAuNSAyMjggMTUzMC41WiIvPjxwYXRoIGZpbGwtcnVsZT0iZXZlbm9kZCIgZmlsbD0iI0UyRjFEOSIgc3Ryb2tlLW1pdGVybGltaXQ9IjgiIHN0cm9rZS13aWR0aD0iMyIgc3Ryb2tlPSIjOTJEMDUwIiBkPSJNMzk3IDE1OTMuNUM0MDAuMDM4IDE1OTMuNSA0MDIuNSAxNTk1Ljk2IDQwMi41IDE1OTlMNDAyLjUgMTYyMUM0MDIuNSAxNjI0LjA0IDQwMC4wMzggMTYyNi41IDM5NyAxNjI2LjVMMjc3IDE2MjYuNUMyNzMuOTYzIDE2MjYuNSAyNzEuNSAxNjI0LjA0IDI3MS41IDE2MjFMMjcxLjUgMTU5OUMyNzEuNSAxNTk1Ljk2IDI3My45NjMgMTU5My41IDI3NyAxNTkzLjVaIi8+PHRleHQgdHJhbnNmb3JtPSJ0cmFuc2xhdGUoMjg3LjkxMSAxNTgzKSIgZm9udC1zaXplPSIzMiIgZm9udC13ZWlnaHQ9IjQwMCIgZm9udC1mYW1pbHk9IkNhbGlicmksQ2FsaWJyaV9NU0ZvbnRTZXJ2aWNlLHNhbnMtc2VyaWYiPuKApjwvdGV4dD48cGF0aCBmaWxsLXJ1bGU9ImV2ZW5vZGQiIGZpbGw9IiNCMERERjAiIHN0cm9rZS1taXRlcmxpbWl0PSI4IiBzdHJva2Utd2lkdGg9IjMiIHN0cm9rZT0iIzQ0NzJDNCIgZD0iTTUzMC41IDk3NEM1MzAuNSA5NjUuOTkyIDUzNi45OTIgOTU5LjUgNTQ1IDk1OS41TDczNCA5NTkuNUM3NDIuMDA4IDk1OS41IDc0OC41IDk2NS45OTIgNzQ4LjUgOTc0TDc0OC41IDEwMzJDNzQ4LjUgMTA0MC4wMSA3NDIuMDA4IDEwNDYuNSA3MzQgMTA0Ni41TDU0NSAxMDQ2LjVDNTM2Ljk5MiAxMDQ2LjUgNTMwLjUgMTA0MC4wMSA1MzAuNSAxMDMyWiIvPjx0ZXh0IHRyYW5zZm9ybT0idHJhbnNsYXRlKDU5Mi4zMTIgMTAxMykiIGZvbnQtc2l6ZT0iMzIiIGZvbnQtd2VpZ2h0PSI0MDAiIGZvbnQtZmFtaWx5PSJDb21pYyBTYW5zIE1TLENvbWljIFNhbnMgTVNfTVNGb250U2VydmljZSxzYW5zLXNlcmlmIj5RdWVyeTwvdGV4dD48cGF0aCB0cmFuc2Zvcm09Im1hdHJpeCgxIDAgMCAtMSA0NTEuNSAxNTQ1LjI5KSIgZmlsbC1ydWxlPSJldmVub2RkIiBmaWxsPSJub25lIiBzdHJva2UtbWl0ZXJsaW1pdD0iOCIgc3Ryb2tlLXdpZHRoPSIzIiBzdHJva2U9IiMwMDAwMDAiIGQ9Ik0wIDAgNzAuODY4NCAwLjc5NDg1NiIvPjxwYXRoIGZpbGwtcnVsZT0iZXZlbm9kZCIgZmlsbD0ibm9uZSIgc3Ryb2tlLW1pdGVybGltaXQ9IjgiIHN0cm9rZS13aWR0aD0iMyIgc3Ryb2tlPSIjMDAwMDAwIiBkPSJNNTYyLjUgMTUwNi41QzU2Mi41IDE1MjcuNDkgNTQ0LjU5MSAxNTQ0LjUgNTIyLjUgMTU0NC41Ii8+PHBhdGggdHJhbnNmb3JtPSJtYXRyaXgoMSAwIDAgLTEgNTYyLjUgMTUwNi4zMykiIGQ9Ik0xLjUtMi44MjA4OGUtMDYgMS41MDAxIDUyLjg1NjUtMS40OTk5IDUyLjg1NjUtMS41IDIuODIwODhlLTA2Wk02LjU0NTc1IDQ0LjYxMjQgMC4wMDAxMDQ5NDggNTUuODMzNS02LjU0NTU4IDQ0LjYxMjRDLTYuOTYzMDEgNDMuODk2OC02LjcyMTMgNDIuOTc4My02LjAwNTczIDQyLjU2MDktNS4yOTAxNSA0Mi4xNDM1LTQuMzcxNjcgNDIuMzg1Mi0zLjk1NDI1IDQzLjEwMDhMMS4yOTU3NyA1Mi4xMDA3LTEuMjk1NTcgNTIuMTAwOCAzLjk1NDQxIDQzLjEwMDdDNC4zNzE4MyA0Mi4zODUyIDUuMjkwMzEgNDIuMTQzNSA2LjAwNTg5IDQyLjU2MDkgNi43MjE0NyA0Mi45NzgzIDYuOTYzMTcgNDMuODk2OCA2LjU0NTc1IDQ0LjYxMjRaIi8+PHBhdGggZD0iTTYzOCAxMDU0LjUgNjM4IDExMTIuNjMgNjM1IDExMTIuNjMgNjM1IDEwNTQuNVpNNjQzLjA0NiAxMTA0LjM5IDYzNi41IDExMTUuNjEgNjI5Ljk1NCAxMTA0LjM5QzYyOS41MzcgMTEwMy42NyA2MjkuNzc5IDExMDIuNzYgNjMwLjQ5NCAxMTAyLjM0IDYzMS4yMSAxMTAxLjkyIDYzMi4xMjggMTEwMi4xNiA2MzIuNTQ2IDExMDIuODhMNjM3Ljc5NiAxMTExLjg4IDYzNS4yMDQgMTExMS44OCA2NDAuNDU0IDExMDIuODhDNjQwLjg3MiAxMTAyLjE2IDY0MS43OSAxMTAxLjkyIDY0Mi41MDYgMTEwMi4zNCA2NDMuMjIyIDExMDIuNzUgNjQzLjQ2MyAxMTAzLjY3IDY0My4wNDYgMTEwNC4zOVoiLz48cGF0aCBmaWxsLXJ1bGU9ImV2ZW5vZGQiIGZpbGw9IiNGQkY4RTkiIGQ9Ik00OTAgMTE4MC44NEM0OTAgMTE1Mi43NiA1MTIuNzYgMTEzMCA1NDAuODM3IDExMzBMNzQ0LjE3NiAxMTMwQzc3Mi4yNTMgMTEzMCA3OTUuMDEzIDExNTIuNzYgNzk1LjAxMyAxMTgwLjg0TDc5NS4wMTMgMTM4OC4xNkM3OTUuMDEzIDE0MTYuMjQgNzcyLjI1MyAxNDM5IDc0NC4xNzYgMTQzOUw1NDAuODM3IDE0MzlDNTEyLjc2IDE0MzkgNDkwIDE0MTYuMjQgNDkwIDEzODguMTZaIi8+PHBhdGggZmlsbC1ydWxlPSJldmVub2RkIiBmaWxsPSIjQjBEREYwIiBkPSJNNTg1IDEzMDlDNTg2LjY1NyAxMzA5IDU4OCAxMzEwLjM0IDU4OCAxMzEyTDU4OCAxMzI0QzU4OCAxMzI1LjY2IDU4Ni42NTcgMTMyNyA1ODUgMTMyN0w1MTAgMTMyN0M1MDguMzQzIDEzMjcgNTA3IDEzMjUuNjYgNTA3IDEzMjRMNTA3IDEzMTJDNTA3IDEzMTAuMzQgNTA4LjM0MyAxMzA5IDUxMCAxMzA5WiIvPjxwYXRoIGZpbGwtcnVsZT0iZXZlbm9kZCIgZmlsbD0iIzU0ODIzNSIgZD0iTTcxMyAxMzgwQzcxNC42NTcgMTM4MCA3MTYgMTM4MS4zNCA3MTYgMTM4M0w3MTYgMTM5NUM3MTYgMTM5Ni42NiA3MTQuNjU3IDEzOTggNzEzIDEzOThMNjM5IDEzOThDNjM3LjM0MyAxMzk4IDYzNiAxMzk2LjY2IDYzNiAxMzk1TDYzNiAxMzgzQzYzNiAxMzgxLjM0IDYzNy4zNDMgMTM4MCA2MzkgMTM4MFoiLz48cGF0aCBmaWxsLXJ1bGU9ImV2ZW5vZGQiIGZpbGw9IiNBOUQxOEUiIGQ9Ik03MTIgMTMwNEM3MTMuNjU3IDEzMDQgNzE1IDEzMDUuMzQgNzE1IDEzMDdMNzE1IDEzMTlDNzE1IDEzMjAuNjYgNzEzLjY1NyAxMzIyIDcxMiAxMzIyTDYzNyAxMzIyQzYzNS4zNDMgMTMyMiA2MzQgMTMyMC42NiA2MzQgMTMxOUw2MzQgMTMwN0M2MzQgMTMwNS4zNCA2MzUuMzQzIDEzMDQgNjM3IDEzMDRaIi8+PHBhdGggZmlsbC1ydWxlPSJldmVub2RkIiBmaWxsPSIjRTJGMUQ5IiBkPSJNNzEwIDEyNTJDNzExLjY1NyAxMjUyIDcxMyAxMjUzLjM0IDcxMyAxMjU1TDcxMyAxMjY3QzcxMyAxMjY4LjY2IDcxMS42NTcgMTI3MCA3MTAgMTI3MEw2MzUgMTI3MEM2MzMuMzQzIDEyNzAgNjMyIDEyNjguNjYgNjMyIDEyNjdMNjMyIDEyNTVDNjMyIDEyNTMuMzQgNjMzLjM0MyAxMjUyIDYzNSAxMjUyWiIvPjx0ZXh0IHRyYW5zZm9ybT0idHJhbnNsYXRlKDY2Mi41NzggMTM1MikiIGZvbnQtc2l6ZT0iMzIiIGZvbnQtd2VpZ2h0PSI0MDAiIGZvbnQtZmFtaWx5PSJDYWxpYnJpLENhbGlicmlfTVNGb250U2VydmljZSxzYW5zLXNlcmlmIj7igKY8L3RleHQ+PHRleHQgdHJhbnNmb3JtPSJ0cmFuc2xhdGUoNTE3LjAxMyAxMTg0KSIgZm9udC1zaXplPSIzMiIgZm9udC13ZWlnaHQ9IjQwMCIgZm9udC1mYW1pbHk9IkNvbWljIFNhbnMgTVMsQ29taWMgU2FucyBNU19NU0ZvbnRTZXJ2aWNlLHNhbnMtc2VyaWYiPkxldmVuc2h0ZWluPC90ZXh0Pjx0ZXh0IHRyYW5zZm9ybT0idHJhbnNsYXRlKDY5NC4zNDYgMTE4NCkiIGZvbnQtc2l6ZT0iMzIiIGZvbnQtd2VpZ2h0PSI0MDAiIGZvbnQtZmFtaWx5PSJDb21pYyBTYW5zIE1TLENvbWljIFNhbnMgTVNfTVNGb250U2VydmljZSxzYW5zLXNlcmlmIj4tPC90ZXh0Pjx0ZXh0IHRyYW5zZm9ybT0idHJhbnNsYXRlKDUxNy4wMTMgMTIyMykiIGZvbnQtc2l6ZT0iMzIiIGZvbnQtd2VpZ2h0PSI0MDAiIGZvbnQtZmFtaWx5PSJDb21pYyBTYW5zIE1TLENvbWljIFNhbnMgTVNfTVNGb250U2VydmljZSxzYW5zLXNlcmlmIj5CYXNlZCBTaW1pbGFyaXR5PC90ZXh0PjxwYXRoIHRyYW5zZm9ybT0ibWF0cml4KDEgMCAwIC0xIDYwMS41IDEyOTEuNSkiIGZpbGwtcnVsZT0iZXZlbm9kZCIgZmlsbD0ibm9uZSIgc3Ryb2tlLW1pdGVybGltaXQ9IjgiIHN0cm9rZS13aWR0aD0iMS4zMzMzMyIgc3Ryb2tlPSIjMDAwMDAwIiBkPSJNMCAwIDEyLjU1NTkgMjAiLz48cGF0aCBmaWxsLXJ1bGU9ImV2ZW5vZGQiIGZpbGw9Im5vbmUiIHN0cm9rZS1taXRlcmxpbWl0PSI4IiBzdHJva2Utd2lkdGg9IjEuMzMzMzMiIHN0cm9rZT0iIzAwMDAwMCIgZD0iTTU5OC41IDEzMTUuNSA2MjIuNjMgMTMxNS41Ii8+PHBhdGggZmlsbC1ydWxlPSJldmVub2RkIiBmaWxsPSJub25lIiBzdHJva2UtbWl0ZXJsaW1pdD0iOCIgc3Ryb2tlLXdpZHRoPSIxLjMzMzMzIiBzdHJva2U9IiMwMDAwMDAiIGQ9Ik02MDEuNSAxMzM4LjUgNjI0LjI5NyAxMzc1LjgzIi8+PHBhdGggZD0iTTY2NiAxNDQ2LjUgNjY2IDE1NTEuMyA2NjMgMTU1MS4zIDY2MyAxNDQ2LjVaTTY3MS4wNDYgMTU0My4wNiA2NjQuNSAxNTU0LjI4IDY1Ny45NTQgMTU0My4wNkM2NTcuNTM3IDE1NDIuMzQgNjU3Ljc3OSAxNTQxLjQyIDY1OC40OTQgMTU0MSA2NTkuMjEgMTU0MC41OSA2NjAuMTI4IDE1NDAuODMgNjYwLjU0NiAxNTQxLjU0TDY2NS43OTYgMTU1MC41NCA2NjMuMjA0IDE1NTAuNTQgNjY4LjQ1NCAxNTQxLjU0QzY2OC44NzIgMTU0MC44MyA2NjkuNzkgMTU0MC41OSA2NzAuNTA2IDE1NDEgNjcxLjIyMiAxNTQxLjQyIDY3MS40NjMgMTU0Mi4zNCA2NzEuMDQ2IDE1NDMuMDZaIi8+PHBhdGggZmlsbC1ydWxlPSJldmVub2RkIiBmaWxsPSIjREFFM0YzIiBkPSJNNTMxIDE1ODAuNUM1MzEgMTU3Mi40OSA1MzcuNDkyIDE1NjYgNTQ1LjUgMTU2Nkw3ODMuNSAxNTY2Qzc5MS41MDggMTU2NiA3OTggMTU3Mi40OSA3OTggMTU4MC41TDc5OCAxNjM4LjVDNzk4IDE2NDYuNTEgNzkxLjUwOCAxNjUzIDc4My41IDE2NTNMNTQ1LjUgMTY1M0M1MzcuNDkyIDE2NTMgNTMxIDE2NDYuNTEgNTMxIDE2MzguNVoiLz48dGV4dCB0cmFuc2Zvcm09InRyYW5zbGF0ZSg1NDcuMjcgMTYxOSkiIGZvbnQtc2l6ZT0iMzIiIGZvbnQtd2VpZ2h0PSI0MDAiIGZvbnQtZmFtaWx5PSJDb21pYyBTYW5zIE1TLENvbWljIFNhbnMgTVNfTVNGb250U2VydmljZSxzYW5zLXNlcmlmIj5SZXRyaWV2YWwgU2NvcmU8L3RleHQ+PC9nPjwvc3ZnPg==;" parent="1" vertex="1">
          <mxGeometry x="40" y="120" width="304" height="334.21" as="geometry" />
        </mxCell>
        <mxCell id="DNIy30dWIXp-kNTNznPd-2" value="" style="shape=image;verticalLabelPosition=bottom;labelBackgroundColor=default;verticalAlign=top;aspect=fixed;imageAspect=0;editableCssRules=.*;image=data:image/svg+xml,PHN2ZyB4bWxuczp4bGluaz0iaHR0cDovL3d3dy53My5vcmcvMTk5OS94bGluayIgeG1sbnM9Imh0dHA6Ly93d3cudzMub3JnLzIwMDAvc3ZnIiBzdHlsZT0iY29sb3I6IHJnYigwLCAwLCAwKTsgZm9udC1zaXplOiBtZWRpdW07IGZvbnQtc3R5bGU6IG5vcm1hbDsgZm9udC12YXJpYW50LWxpZ2F0dXJlczogbm9ybWFsOyBmb250LXZhcmlhbnQtY2Fwczogbm9ybWFsOyBmb250LXdlaWdodDogNDAwOyBsZXR0ZXItc3BhY2luZzogbm9ybWFsOyBvcnBoYW5zOiAyOyB0ZXh0LWFsaWduOiBzdGFydDsgdGV4dC1pbmRlbnQ6IDBweDsgdGV4dC10cmFuc2Zvcm06IG5vbmU7IHdpZG93czogMjsgd29yZC1zcGFjaW5nOiAwcHg7IC13ZWJraXQtdGV4dC1zdHJva2Utd2lkdGg6IDBweDsgd2hpdGUtc3BhY2U6IG5vcm1hbDsgdGV4dC1kZWNvcmF0aW9uLXRoaWNrbmVzczogaW5pdGlhbDsgdGV4dC1kZWNvcmF0aW9uLXN0eWxlOiBpbml0aWFsOyB0ZXh0LWRlY29yYXRpb24tY29sb3I6IGluaXRpYWw7IiBvdmVyZmxvdz0iaGlkZGVuIiB4bWw6c3BhY2U9InByZXNlcnZlIiBoZWlnaHQ9Ijk5NC41IiB3aWR0aD0iNzkwLjUiIHZpZXdCb3g9IjkgMCA3OTAuNSA5OTQuNSI+PGRlZnM+PGltYWdlIGlkPSJpbWcwIiBwcmVzZXJ2ZUFzcGVjdFJhdGlvPSJub25lIiB4bGluazpocmVmPSJkYXRhOmltYWdlL2pwZWc7YmFzZTY0LC85ai80QUFRU2taSlJnQUJBUUVBWUFCZ0FBRC8yd0JEQUFNQ0FnTUNBZ01EQXdNRUF3TUVCUWdGQlFRRUJRb0hCd1lJREFvTURBc0tDd3NORGhJUURRNFJEZ3NMRUJZUUVSTVVGUlVWREE4WEdCWVVHQklVRlJULzJ3QkRBUU1FQkFVRUJRa0ZCUWtVRFFzTkZCUVVGQlFVRkJRVUZCUVVGQlFVRkJRVUZCUVVGQlFVRkJRVUZCUVVGQlFVRkJRVUZCUVVGQlFVRkJRVUZCUVVGQlQvd0FBUkNBQXhBQzhEQVNJQUFoRUJBeEVCLzhRQUh3QUFBUVVCQVFFQkFRRUFBQUFBQUFBQUFBRUNBd1FGQmdjSUNRb0wvOFFBdFJBQUFnRURBd0lFQXdVRkJBUUFBQUY5QVFJREFBUVJCUkloTVVFR0UxRmhCeUp4RkRLQmthRUlJMEt4d1JWUzBmQWtNMkp5Z2drS0ZoY1lHUm9sSmljb0tTbzBOVFkzT0RrNlEwUkZSa2RJU1VwVFZGVldWMWhaV21Oa1pXWm5hR2xxYzNSMWRuZDRlWHFEaElXR2g0aUppcEtUbEpXV2w1aVptcUtqcEtXbXA2aXBxckt6dExXMnQ3aTV1c0xEeE1YR3g4akp5dExUMU5YVzE5aloydUhpNCtUbDV1Zm82ZXJ4OHZQMDlmYjMrUG42LzhRQUh3RUFBd0VCQVFFQkFRRUJBUUFBQUFBQUFBRUNBd1FGQmdjSUNRb0wvOFFBdFJFQUFnRUNCQVFEQkFjRkJBUUFBUUozQUFFQ0F4RUVCU0V4QmhKQlVRZGhjUk1pTW9FSUZFS1JvYkhCQ1NNelV2QVZZbkxSQ2hZa05PRWw4UmNZR1JvbUp5Z3BLalUyTnpnNU9rTkVSVVpIU0VsS1UxUlZWbGRZV1ZwalpHVm1aMmhwYW5OMGRYWjNlSGw2Z29PRWhZYUhpSW1La3BPVWxaYVhtSm1hb3FPa3BhYW5xS21xc3JPMHRiYTN1TG02d3NQRXhjYkh5TW5LMHRQVTFkYlgyTm5hNHVQazVlYm42T25xOHZQMDlmYjMrUG42LzlvQURBTUJBQUlSQXhFQVB3RDUzR3EzWFA3My93QWRIK0ZTclpReWZNeVpadVNjbXRZZUZJT2YzMG41Q3IwZmg2SUtCNWo5UFFWK29lMnByWStGcVpwZzZkdlpPM29ySEl6V3NTek1BdUIrTlJlU2diaGY1MTBGNW84Y2QzSXU5ajA3RDBGVXBkTlJKTUJtNmVsYnhxS1MwUFRvNCtuVWlyU2V4blJ3b3pISy93QTZYN1BIL2QvblYrT3hVTWZtUDVVdjJGZlUvbFZjeU5aWXFOOXozd2ZBdS81LzRtZHYvd0IrMnBWK0N0OHZIOW8yL3dEM3cxZTBDeG01K1Q5UlZoUEN1cHY4d3R3UVJrZk92K05meTNMam5IVS80dUlpdlZSUjhCOVNxMXZncHQraVo4OTNud052NUxxUnY3U3R4bkgvQUN6YjBGY2I0cytIOXg0YjFLTzJrdW9wbWFJU2JsVWdjc1JqOUsrbU5UdDMwL1VKWUp4c2xURzVlRDFBUGI2MTR0OFhyeUdIeE5iQjN3ZnNpbjd2KzI5Zm9QRGZFR1B6SEV3aFVtcFFjYjZKZHROVVlSeEdJcFRkS082MHRiWFE4MVhRWkZKL2VMK1ZJMmh5TC95MFg4cTE0SjB1bVlSdHVLOWVNVVRyNWFsbTRHYS9UdmF6dlptdjE3RXFYTEo2K2g5cURROVI1LzRsOTEvMzViL0N1aWdsampqUldkVlpWQUtzUUNENlYzZzcxNWplL3dESDljZjlkRy9uWCtjSDF5V2IrN05jdkwyOHo5aXhPV3d5VktWT1hOemQvSTg0OGRhcFpRK0xMNUh2TGRIR3pLdEtvUDNGOTYrZlBqSmUyMXg0cHRtaW5qbFg3R295amdqTzk2N3Y0cmY4bEExWC90bC82S1N2RnZIbi9JWmkvd0N1QS84QVFtciswK0Njb2hoc1BoTVFwdHQwby9qRkg0M2hadkU1eFdnOU5aL21TNkZOSDVrM3pyMEhjVmZ1eDlvaUtSRHpYem5hbkovU3VhMEgvV1RmUVYxUGgvOEE1Q0gvQUFFMSttWWlQSTNOZEM4eW9yRDFwMVU3MjEvQStqQjNyTWIvQUZqL0FGTkZGZnpQUTNaN2ViZkRENW5sUGpUL0FKR2k5LzRCL3dDZ0xYQmVJUDhBaitUL0FLNWorWm9vcitnOG4vM2FqL2dqK1NQbjh1LzN0L01yYWQvckpQcFdqYi82dy9TaWl2YXE5VDFNWjhVai85az0iIGhlaWdodD0iNDkiIHdpZHRoPSI0NyIvPjxjbGlwUGF0aCBpZD0iY2xpcDEiPjxwYXRoIGNsaXAtcnVsZT0iZXZlbm9kZCIgZmlsbC1ydWxlPSJldmVub2RkIiBkPSJNMTA2OSAxNjczLjVDMTA3Mi41OSAxNjczLjUgMTA3NS41IDE2NzYuNDEgMTA3NS41IDE2ODBMMTA3NS41IDE3MDZDMTA3NS41IDE3MDkuNTkgMTA3Mi41OSAxNzEyLjUgMTA2OSAxNzEyLjVMMTA0MSAxNzEyLjVDMTAzNy40MSAxNzEyLjUgMTAzNC41IDE3MDkuNTkgMTAzNC41IDE3MDZMMTAzNC41IDE2ODBDMTAzNC41IDE2NzYuNDEgMTAzNy40MSAxNjczLjUgMTA0MSAxNjczLjVaIi8+PC9jbGlwUGF0aD48aW1hZ2UgaWQ9ImltZzIiIHByZXNlcnZlQXNwZWN0UmF0aW89Im5vbmUiIHhsaW5rOmhyZWY9ImRhdGE6aW1hZ2UvanBlZztiYXNlNjQsLzlqLzRBQVFTa1pKUmdBQkFRRUFZQUJnQUFELzJ3QkRBQU1DQWdNQ0FnTURBd01FQXdNRUJRZ0ZCUVFFQlFvSEJ3WUlEQW9NREFzS0N3c05EaElRRFE0UkRnc0xFQllRRVJNVUZSVVZEQThYR0JZVUdCSVVGUlQvMndCREFRTUVCQVVFQlFrRkJRa1VEUXNORkJRVUZCUVVGQlFVRkJRVUZCUVVGQlFVRkJRVUZCUVVGQlFVRkJRVUZCUVVGQlFVRkJRVUZCUVVGQlFVRkJRVUZCVC93QUFSQ0FBYUFCc0RBU0lBQWhFQkF4RUIvOFFBSHdBQUFRVUJBUUVCQVFFQUFBQUFBQUFBQUFFQ0F3UUZCZ2NJQ1FvTC84UUF0UkFBQWdFREF3SUVBd1VGQkFRQUFBRjlBUUlEQUFRUkJSSWhNVUVHRTFGaEJ5SnhGREtCa2FFSUkwS3h3UlZTMGZBa00ySnlnZ2tLRmhjWUdSb2xKaWNvS1NvME5UWTNPRGs2UTBSRlJrZElTVXBUVkZWV1YxaFpXbU5rWldabmFHbHFjM1IxZG5kNGVYcURoSVdHaDRpSmlwS1RsSldXbDVpWm1xS2pwS1dtcDZpcHFyS3p0TFcydDdpNXVzTER4TVhHeDhqSnl0TFQxTlhXMTlqWjJ1SGk0K1RsNXVmbzZlcng4dlAwOWZiMytQbjYvOFFBSHdFQUF3RUJBUUVCQVFFQkFRQUFBQUFBQUFFQ0F3UUZCZ2NJQ1FvTC84UUF0UkVBQWdFQ0JBUURCQWNGQkFRQUFRSjNBQUVDQXhFRUJTRXhCaEpCVVFkaGNSTWlNb0VJRkVLUm9iSEJDU016VXZBVlluTFJDaFlrTk9FbDhSY1lHUm9tSnlncEtqVTJOemc1T2tORVJVWkhTRWxLVTFSVlZsZFlXVnBqWkdWbVoyaHBhbk4wZFhaM2VIbDZnb09FaFlhSGlJbUtrcE9VbFphWG1KbWFvcU9rcGFhbnFLbXFzck8wdGJhM3VMbTZ3c1BFeGNiSHlNbkswdFBVMWRiWDJObmE0dVBrNWVibjZPbnE4dlAwOWZiMytQbjYvOW9BREFNQkFBSVJBeEVBUHdEbjdYUnJ4cnFFQ0hrdW8rK1BYNjEwN2VITlJ6L3g3LzhBa1JmOGFXeE9MMjNKNEhtTC9NVjJyVFI1Kyt2L0FIMVhtWmxtdGVuT0tqRlA3LzhBTS9tV2xUalhUYzNzZVZOZndCc0dUOURWT2JTYnE4a2FhS0xmRzV5cmJnTS9tYXZ5ZUN2RUxPU05CMVFqUC9QbkovOEFFMXMyZHJOWTIwY0Z4REpienhqRHh5cVZaVDZFSHBYMER4dENrcjRhcEdUNnE2ZjVGem9WTUt1ZHhhdjNSSmIvQU92ai93QjRmenJkYnJYR1NTTUkySVlnNFBlczVydWZQK3VrL3dDK2pYa1ZNSDdhejVyZkk1cWM3SSszSS84QVZSLzdvcjV3K0lmL0FDTzJzZjhBWGMveUZlUXQ0bDFmUC9JVnZmOEF3SWYvQUJyWXRidWU0dDBrbG1rbGtZWlozWWtuNm12eS9oSGczK3dzWlZ4SDFqbjVvMnR5MjZwL3pNL1RlTE00L3REQ1U2ZnMrVzByNzM2UHlSLy8yUT09IiBoZWlnaHQ9IjI2IiB3aWR0aD0iMjciLz48Y2xpcFBhdGggaWQ9ImNsaXAzIj48cGF0aCBjbGlwLXJ1bGU9ImV2ZW5vZGQiIGZpbGwtcnVsZT0iZXZlbm9kZCIgZD0iTTEwOTYgMTY5MC41QzEwOTkuNTkgMTY5MC41IDExMDIuNSAxNjkzLjQxIDExMDIuNSAxNjk3TDExMDIuNSAxNzIzQzExMDIuNSAxNzI2LjU5IDEwOTkuNTkgMTcyOS41IDEwOTYgMTcyOS41TDEwNjggMTcyOS41QzEwNjQuNDEgMTcyOS41IDEwNjEuNSAxNzI2LjU5IDEwNjEuNSAxNzIzTDEwNjEuNSAxNjk3QzEwNjEuNSAxNjkzLjQxIDEwNjQuNDEgMTY5MC41IDEwNjggMTY5MC41WiIvPjwvY2xpcFBhdGg+PGltYWdlIGlkPSJpbWc0IiBwcmVzZXJ2ZUFzcGVjdFJhdGlvPSJub25lIiB4bGluazpocmVmPSJkYXRhOmltYWdlL2pwZWc7YmFzZTY0LC85ai80QUFRU2taSlJnQUJBUUVBWUFCZ0FBRC8yd0JEQUFNQ0FnTUNBZ01EQXdNRUF3TUVCUWdGQlFRRUJRb0hCd1lJREFvTURBc0tDd3NORGhJUURRNFJEZ3NMRUJZUUVSTVVGUlVWREE4WEdCWVVHQklVRlJULzJ3QkRBUU1FQkFVRUJRa0ZCUWtVRFFzTkZCUVVGQlFVRkJRVUZCUVVGQlFVRkJRVUZCUVVGQlFVRkJRVUZCUVVGQlFVRkJRVUZCUVVGQlFVRkJRVUZCUVVGQlQvd0FBUkNBQW5BQ1lEQVNJQUFoRUJBeEVCLzhRQUh3QUFBUVVCQVFFQkFRRUFBQUFBQUFBQUFBRUNBd1FGQmdjSUNRb0wvOFFBdFJBQUFnRURBd0lFQXdVRkJBUUFBQUY5QVFJREFBUVJCUkloTVVFR0UxRmhCeUp4RkRLQmthRUlJMEt4d1JWUzBmQWtNMkp5Z2drS0ZoY1lHUm9sSmljb0tTbzBOVFkzT0RrNlEwUkZSa2RJU1VwVFZGVldWMWhaV21Oa1pXWm5hR2xxYzNSMWRuZDRlWHFEaElXR2g0aUppcEtUbEpXV2w1aVptcUtqcEtXbXA2aXBxckt6dExXMnQ3aTV1c0xEeE1YR3g4akp5dExUMU5YVzE5aloydUhpNCtUbDV1Zm82ZXJ4OHZQMDlmYjMrUG42LzhRQUh3RUFBd0VCQVFFQkFRRUJBUUFBQUFBQUFBRUNBd1FGQmdjSUNRb0wvOFFBdFJFQUFnRUNCQVFEQkFjRkJBUUFBUUozQUFFQ0F4RUVCU0V4QmhKQlVRZGhjUk1pTW9FSUZFS1JvYkhCQ1NNelV2QVZZbkxSQ2hZa05PRWw4UmNZR1JvbUp5Z3BLalUyTnpnNU9rTkVSVVpIU0VsS1UxUlZWbGRZV1ZwalpHVm1aMmhwYW5OMGRYWjNlSGw2Z29PRWhZYUhpSW1La3BPVWxaYVhtSm1hb3FPa3BhYW5xS21xc3JPMHRiYTN1TG02d3NQRXhjYkh5TW5LMHRQVTFkYlgyTm5hNHVQazVlYm42T25xOHZQMDlmYjMrUG42LzlvQURBTUJBQUlSQXhFQVB3RGhkS0gra24vZFA5SzBaaCs2ZjZWazJ6R09USzhIRmJuaFZGdnZFRmpCT3Ztd3lTWVpHSEJGZlU0cCt6VXF6MmlyL2RxZnpqV3B1cFZUUms0Ni9TcXE5YTk1ajhIYUtXQU9td1kvM2EwbDhBK0hzLzhBSUl0disrUC9BSzlmRDFPTnNIUnRlbExYMC96UFZvNFdVazlUNVZ1UCtQaVgvZVA4Nks2enhEcGRwQnIrcHh4MjZKR2x6S3FxQndBSElBb3I5TXBZcU5TbkdhVzZUUFMvdENuSDNiUFF5OUx1SHVMa3ErTWJTZUI5SzZmdzBUYjY3WnlKOTVaTWpOVWJQd3Q5aG1NbjJuZnhqSGw0L3JXbFkyLzJHNmp1TTcvTE9kdU1acnljVlZwVm9TakIzdW1qNW5GWW1sS3BlaTlEMHVQWExyekJ5blgrN1d5dXVYV2VxZjhBZk5lY3hlSnYzaS82TjMvdi93RDFxM0Y4UmMvOGUvOEE0LzhBL1dyOHN4ZVRPOGYzUy9BaWxqSlF2ZWJQTnRlSmsxelVYYnExeklUL0FOOUdpcjJvYVY5cXZybWJ6TnZtU00rM2JuR1NUanJSWDZqUnIwNDA0eHZza1Q5WnAvekc1cldpejZOYUxQTzBiSVhDZnV6azVJUHQ3Vmd0ZlI3VHczNUNpaXZFeWVwTEdZYjJ0WGU3TVowSVJsWkVjTjVINWk4TjE5QlhRTGVSNSs2MzVDaWl1L0YwWTNSelZvcUZyR2RKZEo1amNOMVBZVVVVVTFUall5NVVmLy9aIiBoZWlnaHQ9IjM5IiB3aWR0aD0iMzgiLz48Y2xpcFBhdGggaWQ9ImNsaXA1Ij48cGF0aCBjbGlwLXJ1bGU9ImV2ZW5vZGQiIGZpbGwtcnVsZT0iZXZlbm9kZCIgZD0iTTExNTkgMTc0Ni41QzExNjIuNTkgMTc0Ni41IDExNjUuNSAxNzQ5LjQxIDExNjUuNSAxNzUzTDExNjUuNSAxNzc5QzExNjUuNSAxNzgyLjU5IDExNjIuNTkgMTc4NS41IDExNTkgMTc4NS41TDExMzEgMTc4NS41QzExMjcuNDEgMTc4NS41IDExMjQuNSAxNzgyLjU5IDExMjQuNSAxNzc5TDExMjQuNSAxNzUzQzExMjQuNSAxNzQ5LjQxIDExMjcuNDEgMTc0Ni41IDExMzEgMTc0Ni41WiIvPjwvY2xpcFBhdGg+PC9kZWZzPjxnIHRyYW5zZm9ybT0idHJhbnNsYXRlKC05OTMgLTgxNCkiPjxwYXRoIGZpbGwtcnVsZT0iZXZlbm9kZCIgZmlsbD0iI0ZGRDk2NiIgZD0iTTExNDAgMTUzNC4zM0MxMTQwIDE1MzAuMjggMTE0My4yOCAxNTI3IDExNDcuMzMgMTUyN0wxMzQxLjY3IDE1MjdDMTM0NS43MiAxNTI3IDEzNDkgMTUzMC4yOCAxMzQ5IDE1MzQuMzNMMTM0OSAxNTYzLjY3QzEzNDkgMTU2Ny43MiAxMzQ1LjcyIDE1NzEgMTM0MS42NyAxNTcxTDExNDcuMzMgMTU3MUMxMTQzLjI4IDE1NzEgMTE0MCAxNTY3LjcyIDExNDAgMTU2My42N1oiLz48cGF0aCBmaWxsLXJ1bGU9ImV2ZW5vZGQiIGZpbGw9IiNERUVCRjciIHN0cm9rZS1taXRlcmxpbWl0PSI4IiBzdHJva2Utd2lkdGg9IjMiIHN0cm9rZT0iIzFCQTFFMiIgZD0iTTE0NjQuNSAxMTUyQzE0NjQuNSAxMTM1LjE2IDE0NzguMTYgMTEyMS41IDE0OTUgMTEyMS41TDE3MDIgMTEyMS41QzE3MTguODQgMTEyMS41IDE3MzIuNSAxMTM1LjE2IDE3MzIuNSAxMTUyTDE3MzIuNSAxMjc0QzE3MzIuNSAxMjkwLjg0IDE3MTguODQgMTMwNC41IDE3MDIgMTMwNC41TDE0OTUgMTMwNC41QzE0NzguMTYgMTMwNC41IDE0NjQuNSAxMjkwLjg0IDE0NjQuNSAxMjc0WiIvPjxwYXRoIGZpbGwtcnVsZT0iZXZlbm9kZCIgZmlsbD0iI0UyRjFEOSIgc3Ryb2tlLW1pdGVybGltaXQ9IjgiIHN0cm9rZS13aWR0aD0iMyIgc3Ryb2tlPSIjOTJEMDUwIiBkPSJNMTYxOCAxMTcxLjVDMTYyMS4wNCAxMTcxLjUgMTYyMy41IDExNzMuOTYgMTYyMy41IDExNzdMMTYyMy41IDExOTlDMTYyMy41IDEyMDIuMDQgMTYyMS4wNCAxMjA0LjUgMTYxOCAxMjA0LjVMMTQ5OCAxMjA0LjVDMTQ5NC45NiAxMjA0LjUgMTQ5Mi41IDEyMDIuMDQgMTQ5Mi41IDExOTlMMTQ5Mi41IDExNzdDMTQ5Mi41IDExNzMuOTYgMTQ5NC45NiAxMTcxLjUgMTQ5OCAxMTcxLjVaIi8+PHBhdGggZmlsbC1ydWxlPSJldmVub2RkIiBmaWxsPSIjRTJGMUQ5IiBzdHJva2UtbWl0ZXJsaW1pdD0iOCIgc3Ryb2tlLXdpZHRoPSIzIiBzdHJva2U9IiM5MkQwNTAiIGQ9Ik0xNjM5IDExOTAuNUMxNjQyLjA0IDExOTAuNSAxNjQ0LjUgMTE5Mi45NiAxNjQ0LjUgMTE5NkwxNjQ0LjUgMTIxOEMxNjQ0LjUgMTIyMS4wNCAxNjQyLjA0IDEyMjMuNSAxNjM5IDEyMjMuNUwxNTE5IDEyMjMuNUMxNTE1Ljk2IDEyMjMuNSAxNTEzLjUgMTIyMS4wNCAxNTEzLjUgMTIxOEwxNTEzLjUgMTE5NkMxNTEzLjUgMTE5Mi45NiAxNTE1Ljk2IDExOTAuNSAxNTE5IDExOTAuNVoiLz48cGF0aCBmaWxsLXJ1bGU9ImV2ZW5vZGQiIGZpbGw9IiNFMkYxRDkiIHN0cm9rZS1taXRlcmxpbWl0PSI4IiBzdHJva2Utd2lkdGg9IjMiIHN0cm9rZT0iIzkyRDA1MCIgZD0iTTE2ODkgMTI1My41QzE2OTIuMDQgMTI1My41IDE2OTQuNSAxMjU1Ljk2IDE2OTQuNSAxMjU5TDE2OTQuNSAxMjgxQzE2OTQuNSAxMjg0LjA0IDE2OTIuMDQgMTI4Ni41IDE2ODkgMTI4Ni41TDE1NjkgMTI4Ni41QzE1NjUuOTYgMTI4Ni41IDE1NjMuNSAxMjg0LjA0IDE1NjMuNSAxMjgxTDE1NjMuNSAxMjU5QzE1NjMuNSAxMjU1Ljk2IDE1NjUuOTYgMTI1My41IDE1NjkgMTI1My41WiIvPjx0ZXh0IHRyYW5zZm9ybT0idHJhbnNsYXRlKDE1NzkuMzggMTI0MykiIGZvbnQtc2l6ZT0iMzIiIGZvbnQtd2VpZ2h0PSI0MDAiIGZvbnQtZmFtaWx5PSJDYWxpYnJpLENhbGlicmlfTVNGb250U2VydmljZSxzYW5zLXNlcmlmIj7igKY8L3RleHQ+PHBhdGggZmlsbC1ydWxlPSJldmVub2RkIiBmaWxsPSIjQjBEREYwIiBzdHJva2UtbWl0ZXJsaW1pdD0iOCIgc3Ryb2tlLXdpZHRoPSIzIiBzdHJva2U9IiMxQkExRTIiIGQ9Ik0xMDAzLjUgMTY1OEMxMDAzLjUgMTY0MS43MSAxMDE2LjcxIDE2MjguNSAxMDMzIDE2MjguNUwxMjU5IDE2MjguNUMxMjc1LjI5IDE2MjguNSAxMjg4LjUgMTY0MS43MSAxMjg4LjUgMTY1OEwxMjg4LjUgMTc3NkMxMjg4LjUgMTc5Mi4yOSAxMjc1LjI5IDE4MDUuNSAxMjU5IDE4MDUuNUwxMDMzIDE4MDUuNUMxMDE2LjcxIDE4MDUuNSAxMDAzLjUgMTc5Mi4yOSAxMDAzLjUgMTc3NloiLz48cGF0aCBmaWxsLXJ1bGU9ImV2ZW5vZGQiIGZpbGw9IiNGNkU1RDgiIHN0cm9rZS1taXRlcmxpbWl0PSI4IiBzdHJva2Utd2lkdGg9IjMiIHN0cm9rZT0iI0Y0QjE4MyIgZD0iTTEwMDYuNSA4NjUuMTY4QzEwMDYuNSA4NDAuNDk4IDEwMjYuNSA4MjAuNSAxMDUxLjE3IDgyMC41TDEyMjkuODMgODIwLjVDMTI1NC41IDgyMC41IDEyNzQuNSA4NDAuNDk4IDEyNzQuNSA4NjUuMTY4TDEyNzQuNSAxMDU0LjgzQzEyNzQuNSAxMDc5LjUgMTI1NC41IDEwOTkuNSAxMjI5LjgzIDEwOTkuNUwxMDUxLjE3IDEwOTkuNUMxMDI2LjUgMTA5OS41IDEwMDYuNSAxMDc5LjUgMTAwNi41IDEwNTQuODNaIi8+PHRleHQgdHJhbnNmb3JtPSJ0cmFuc2xhdGUoMTAzMi41MyA4NjkpIiBmb250LXNpemU9IjMyIiBmb250LXdlaWdodD0iNDAwIiBmb250LWZhbWlseT0iQ29taWMgU2FucyBNUyxDb21pYyBTYW5zIE1TX01TRm9udFNlcnZpY2Usc2Fucy1zZXJpZiI+SW1hZ2UgR2FsbGVyeTwvdGV4dD48cGF0aCBmaWxsLXJ1bGU9ImV2ZW5vZGQiIGZpbGw9IiNGQkY4RTkiIHN0cm9rZS1taXRlcmxpbWl0PSI4IiBzdHJva2Utd2lkdGg9IjEuMzMzMzMiIHN0cm9rZT0iI0ZGRDk2NiIgZD0iTTEwNDguNSA5MTQuNUMxMDQ4LjUgOTA2Ljc2OCAxMDU0Ljc3IDkwMC41IDEwNjIuNSA5MDAuNUwxMTE4LjUgOTAwLjVDMTEyNi4yMyA5MDAuNSAxMTMyLjUgOTA2Ljc2OCAxMTMyLjUgOTE0LjVMMTEzMi41IDk3NS41QzExMzIuNSA5ODMuMjMyIDExMjYuMjMgOTg5LjUgMTExOC41IDk4OS41TDEwNjIuNSA5ODkuNUMxMDU0Ljc3IDk4OS41IDEwNDguNSA5ODMuMjMyIDEwNDguNSA5NzUuNVoiLz48cGF0aCBmaWxsLXJ1bGU9ImV2ZW5vZGQiIGZpbGw9IiNGQkY4RTkiIHN0cm9rZS1taXRlcmxpbWl0PSI4IiBzdHJva2Utd2lkdGg9IjEuMzMzMzMiIHN0cm9rZT0iI0ZGRDk2NiIgZD0iTTEwNjQuNSA5MzAuNUMxMDY0LjUgOTIyLjc2OCAxMDcwLjc3IDkxNi41IDEwNzguNSA5MTYuNUwxMTM0LjUgOTE2LjVDMTE0Mi4yMyA5MTYuNSAxMTQ4LjUgOTIyLjc2OCAxMTQ4LjUgOTMwLjVMMTE0OC41IDk5MS41QzExNDguNSA5OTkuMjMyIDExNDIuMjMgMTAwNS41IDExMzQuNSAxMDA1LjVMMTA3OC41IDEwMDUuNUMxMDcwLjc3IDEwMDUuNSAxMDY0LjUgOTk5LjIzMiAxMDY0LjUgOTkxLjVaIi8+PHBhdGggZmlsbC1ydWxlPSJldmVub2RkIiBmaWxsPSIjRkJGOEU5IiBzdHJva2UtbWl0ZXJsaW1pdD0iOCIgc3Ryb2tlLXdpZHRoPSIxLjMzMzMzIiBzdHJva2U9IiNGRkQ5NjYiIGQ9Ik0xMDgwLjUgOTQ2LjVDMTA4MC41IDkzOC43NjggMTA4Ni43NyA5MzIuNSAxMDk0LjUgOTMyLjVMMTE1MC41IDkzMi41QzExNTguMjMgOTMyLjUgMTE2NC41IDkzOC43NjggMTE2NC41IDk0Ni41TDExNjQuNSAxMDA3LjVDMTE2NC41IDEwMTUuMjMgMTE1OC4yMyAxMDIxLjUgMTE1MC41IDEwMjEuNUwxMDk0LjUgMTAyMS41QzEwODYuNzcgMTAyMS41IDEwODAuNSAxMDE1LjIzIDEwODAuNSAxMDA3LjVaIi8+PHBhdGggZmlsbC1ydWxlPSJldmVub2RkIiBmaWxsPSIjRkJGOEU5IiBzdHJva2UtbWl0ZXJsaW1pdD0iOCIgc3Ryb2tlLXdpZHRoPSIxLjMzMzMzIiBzdHJva2U9IiNGRkQ5NjYiIGQ9Ik0xMTYyLjUgMTAwMC42N0MxMTYyLjUgOTkyLjg0MyAxMTY4Ljg0IDk4Ni41IDExNzYuNjcgOTg2LjVMMTIzMy4zMyA5ODYuNUMxMjQxLjE2IDk4Ni41IDEyNDcuNSA5OTIuODQzIDEyNDcuNSAxMDAwLjY3TDEyNDcuNSAxMDYwLjMzQzEyNDcuNSAxMDY4LjE2IDEyNDEuMTYgMTA3NC41IDEyMzMuMzMgMTA3NC41TDExNzYuNjcgMTA3NC41QzExNjguODQgMTA3NC41IDExNjIuNSAxMDY4LjE2IDExNjIuNSAxMDYwLjMzWiIvPjx0ZXh0IHRyYW5zZm9ybT0idHJhbnNsYXRlKDExMzEuNTUgMTA0MSkiIGZvbnQtc2l6ZT0iMzIiIGZvbnQtd2VpZ2h0PSI0MDAiIGZvbnQtZmFtaWx5PSJDYWxpYnJpLENhbGlicmlfTVNGb250U2VydmljZSxzYW5zLXNlcmlmIj7igKY8L3RleHQ+PHBhdGggZmlsbC1ydWxlPSJldmVub2RkIiBmaWxsPSJub25lIiBzdHJva2UtbWl0ZXJsaW1pdD0iOCIgc3Ryb2tlLXdpZHRoPSIzIiBzdHJva2U9IiMwMDAwMDAiIGQ9Ik0xMTM3LjUgMTExMC41IDExMzcuNSAxMTUxLjk4Ii8+PHBhdGggZmlsbC1ydWxlPSJldmVub2RkIiBmaWxsPSIjRUZFMUUxIiBzdHJva2UtbWl0ZXJsaW1pdD0iOCIgc3Ryb2tlLXdpZHRoPSIzIiBzdHJva2U9IiNGNUNERDMiIGQ9Ik0xMDAzLjUgMTE3NC44M0MxMDAzLjUgMTE2Ni4zNyAxMDEwLjM3IDExNTkuNSAxMDE4LjgzIDExNTkuNUwxMjU2LjE3IDExNTkuNUMxMjY0LjY0IDExNTkuNSAxMjcxLjUgMTE2Ni4zNyAxMjcxLjUgMTE3NC44M0wxMjcxLjUgMTIzNi4xN0MxMjcxLjUgMTI0NC42NCAxMjY0LjY0IDEyNTEuNSAxMjU2LjE3IDEyNTEuNUwxMDE4LjgzIDEyNTEuNUMxMDEwLjM3IDEyNTEuNSAxMDAzLjUgMTI0NC42NCAxMDAzLjUgMTIzNi4xN1oiLz48dGV4dCB0cmFuc2Zvcm09InRyYW5zbGF0ZSgxMDI3LjA4IDEyMTYpIiBmb250LXNpemU9IjMyIiBmb250LXdlaWdodD0iNDAwIiBmb250LWZhbWlseT0iQ29taWMgU2FucyBNUyxDb21pYyBTYW5zIE1TX01TRm9udFNlcnZpY2Usc2Fucy1zZXJpZiI+VmlzaW9uIEVuY29kZXI8L3RleHQ+PHBhdGggZD0iTTExNDAgMTI1OC41IDExNDAgMTMwNi4yIDExMzcgMTMwNi4yIDExMzcgMTI1OC41Wk0xMTQ1LjA1IDEyOTcuOTUgMTEzOC41IDEzMDkuMTcgMTEzMS45NSAxMjk3Ljk1QzExMzEuNTQgMTI5Ny4yNCAxMTMxLjc4IDEyOTYuMzIgMTEzMi40OSAxMjk1LjkgMTEzMy4yMSAxMjk1LjQ4IDExMzQuMTMgMTI5NS43MyAxMTM0LjU1IDEyOTYuNDRMMTEzOS44IDEzMDUuNDQgMTEzNy4yIDEzMDUuNDQgMTE0Mi40NSAxMjk2LjQ0QzExNDIuODcgMTI5NS43MyAxMTQzLjc5IDEyOTUuNDggMTE0NC41MSAxMjk1LjkgMTE0NS4yMiAxMjk2LjMyIDExNDUuNDYgMTI5Ny4yNCAxMTQ1LjA1IDEyOTcuOTVaIi8+PHBhdGggZmlsbC1ydWxlPSJldmVub2RkIiBmaWxsPSIjREVFQkY3IiBzdHJva2UtbWl0ZXJsaW1pdD0iOCIgc3Ryb2tlLXdpZHRoPSIzIiBzdHJva2U9IiMxQkExRTIiIGQ9Ik0xMDExLjUgMTM1MC4zM0MxMDExLjUgMTMzNC45NiAxMDIzLjk2IDEzMjIuNSAxMDM5LjMzIDEzMjIuNUwxMjUyLjY3IDEzMjIuNUMxMjY4LjA0IDEzMjIuNSAxMjgwLjUgMTMzNC45NiAxMjgwLjUgMTM1MC4zM0wxMjgwLjUgMTQ2MS42N0MxMjgwLjUgMTQ3Ny4wNCAxMjY4LjA0IDE0ODkuNSAxMjUyLjY3IDE0ODkuNUwxMDM5LjMzIDE0ODkuNUMxMDIzLjk2IDE0ODkuNSAxMDExLjUgMTQ3Ny4wNCAxMDExLjUgMTQ2MS42N1oiLz48dGV4dCB0cmFuc2Zvcm09InRyYW5zbGF0ZSgxMDI5LjYgMTM1OSkiIGZvbnQtc2l6ZT0iMzIiIGZvbnQtd2VpZ2h0PSI0MDAiIGZvbnQtZmFtaWx5PSJDb21pYyBTYW5zIE1TLENvbWljIFNhbnMgTVNfTVNGb250U2VydmljZSxzYW5zLXNlcmlmIj5WaXN1YWwgZmVhdHVyZXM8L3RleHQ+PHBhdGggZmlsbC1ydWxlPSJldmVub2RkIiBmaWxsPSIjRTJGMUQ5IiBzdHJva2UtbWl0ZXJsaW1pdD0iOCIgc3Ryb2tlLXdpZHRoPSIzIiBzdHJva2U9IiM5MkQwNTAiIGQ9Ik0xMTA5IDEzOTIuNUMxMTEyLjU5IDEzOTIuNSAxMTE1LjUgMTM5NS40MSAxMTE1LjUgMTM5OUwxMTE1LjUgMTQyNUMxMTE1LjUgMTQyOC41OSAxMTEyLjU5IDE0MzEuNSAxMTA5IDE0MzEuNUwxMDgxIDE0MzEuNUMxMDc3LjQxIDE0MzEuNSAxMDc0LjUgMTQyOC41OSAxMDc0LjUgMTQyNUwxMDc0LjUgMTM5OUMxMDc0LjUgMTM5NS40MSAxMDc3LjQxIDEzOTIuNSAxMDgxIDEzOTIuNVoiLz48dGV4dCB0cmFuc2Zvcm09InRyYW5zbGF0ZSgxMTE4LjUxIDE0NDIpIiBmb250LXNpemU9IjMyIiBmb250LXdlaWdodD0iNDAwIiBmb250LWZhbWlseT0iQ2FsaWJyaSxDYWxpYnJpX01TRm9udFNlcnZpY2Usc2Fucy1zZXJpZiI+4oCmPC90ZXh0PjxwYXRoIGZpbGwtcnVsZT0iZXZlbm9kZCIgZmlsbD0iI0UyRjFEOSIgc3Ryb2tlLW1pdGVybGltaXQ9IjgiIHN0cm9rZS13aWR0aD0iMyIgc3Ryb2tlPSIjOTJEMDUwIiBkPSJNMTE4MC44MyAxNDM2LjVDMTE4NC41MiAxNDM2LjUgMTE4Ny41IDE0MzkuNDggMTE4Ny41IDE0NDMuMTdMMTE4Ny41IDE0NjkuODNDMTE4Ny41IDE0NzMuNTIgMTE4NC41MiAxNDc2LjUgMTE4MC44MyAxNDc2LjVMMTE1NC4xNyAxNDc2LjVDMTE1MC40OCAxNDc2LjUgMTE0Ny41IDE0NzMuNTIgMTE0Ny41IDE0NjkuODNMMTE0Ny41IDE0NDMuMTdDMTE0Ny41IDE0MzkuNDggMTE1MC40OCAxNDM2LjUgMTE1NC4xNyAxNDM2LjVaIi8+PHBhdGggZmlsbC1ydWxlPSJldmVub2RkIiBmaWxsPSIjRTJGMUQ5IiBzdHJva2UtbWl0ZXJsaW1pdD0iOCIgc3Ryb2tlLXdpZHRoPSIzIiBzdHJva2U9IiM5MkQwNTAiIGQ9Ik0xMDg4IDEzNzYuNUMxMDkxLjU5IDEzNzYuNSAxMDk0LjUgMTM3OS40MSAxMDk0LjUgMTM4M0wxMDk0LjUgMTQwOUMxMDk0LjUgMTQxMi41OSAxMDkxLjU5IDE0MTUuNSAxMDg4IDE0MTUuNUwxMDYwIDE0MTUuNUMxMDU2LjQxIDE0MTUuNSAxMDUzLjUgMTQxMi41OSAxMDUzLjUgMTQwOUwxMDUzLjUgMTM4M0MxMDUzLjUgMTM3OS40MSAxMDU2LjQxIDEzNzYuNSAxMDYwIDEzNzYuNVoiLz48ZyBjbGlwLXBhdGg9InVybCgjY2xpcDEpIj48dXNlIHRyYW5zZm9ybT0ibWF0cml4KDUuMDgwOThlLTE3IDAuODI5Nzg3IC0wLjgzNjczNSA1LjEyMzUyZS0xNyAxMDc1LjUgMTY3My41KSIgeGxpbms6aHJlZj0iI2ltZzAiIGhlaWdodD0iMTAwJSIgd2lkdGg9IjEwMCUiLz48L2c+PHBhdGggZmlsbC1ydWxlPSJldmVub2RkIiBmaWxsPSJub25lIiBzdHJva2UtbWl0ZXJsaW1pdD0iOCIgc3Ryb2tlLXdpZHRoPSIzIiBzdHJva2U9IiM5MkQwNTAiIGQ9Ik0xMDY5IDE2NzMuNUMxMDcyLjU5IDE2NzMuNSAxMDc1LjUgMTY3Ni40MSAxMDc1LjUgMTY4MEwxMDc1LjUgMTcwNkMxMDc1LjUgMTcwOS41OSAxMDcyLjU5IDE3MTIuNSAxMDY5IDE3MTIuNUwxMDQxIDE3MTIuNUMxMDM3LjQxIDE3MTIuNSAxMDM0LjUgMTcwOS41OSAxMDM0LjUgMTcwNkwxMDM0LjUgMTY4MEMxMDM0LjUgMTY3Ni40MSAxMDM3LjQxIDE2NzMuNSAxMDQxIDE2NzMuNVoiLz48ZyBjbGlwLXBhdGg9InVybCgjY2xpcDMpIj48dXNlIHRyYW5zZm9ybT0ibWF0cml4KDguODQ0NjdlLTE3IDEuNDQ0NDQgLTEuNTc2OTIgOS42NTU4N2UtMTcgMTEwMi41IDE2OTAuNSkiIHhsaW5rOmhyZWY9IiNpbWcyIiBoZWlnaHQ9IjEwMCUiIHdpZHRoPSIxMDAlIi8+PC9nPjxwYXRoIGZpbGwtcnVsZT0iZXZlbm9kZCIgZmlsbD0ibm9uZSIgc3Ryb2tlLW1pdGVybGltaXQ9IjgiIHN0cm9rZS13aWR0aD0iMyIgc3Ryb2tlPSIjOTJEMDUwIiBkPSJNMTA5NiAxNjkwLjVDMTA5OS41OSAxNjkwLjUgMTEwMi41IDE2OTMuNDEgMTEwMi41IDE2OTdMMTEwMi41IDE3MjNDMTEwMi41IDE3MjYuNTkgMTA5OS41OSAxNzI5LjUgMTA5NiAxNzI5LjVMMTA2OCAxNzI5LjVDMTA2NC40MSAxNzI5LjUgMTA2MS41IDE3MjYuNTkgMTA2MS41IDE3MjNMMTA2MS41IDE2OTdDMTA2MS41IDE2OTMuNDEgMTA2NC40MSAxNjkwLjUgMTA2OCAxNjkwLjVaIi8+PHRleHQgdHJhbnNmb3JtPSJ0cmFuc2xhdGUoMTA5OS45NiAxNzQ0KSIgZm9udC1zaXplPSIzMiIgZm9udC13ZWlnaHQ9IjQwMCIgZm9udC1mYW1pbHk9IkNhbGlicmksQ2FsaWJyaV9NU0ZvbnRTZXJ2aWNlLHNhbnMtc2VyaWYiPuKApjwvdGV4dD48ZyBjbGlwLXBhdGg9InVybCgjY2xpcDUpIj48dXNlIHRyYW5zZm9ybT0ibWF0cml4KDYuMjg0MzdlLTE3IDEuMDI2MzIgLTEuMDUxMjggNi40MzcyNWUtMTcgMTE2NS41IDE3NDYuNSkiIHhsaW5rOmhyZWY9IiNpbWc0IiBoZWlnaHQ9IjEwMCUiIHdpZHRoPSIxMDAlIi8+PC9nPjxwYXRoIGZpbGwtcnVsZT0iZXZlbm9kZCIgZmlsbD0ibm9uZSIgc3Ryb2tlLW1pdGVybGltaXQ9IjgiIHN0cm9rZS13aWR0aD0iMyIgc3Ryb2tlPSIjOTJEMDUwIiBkPSJNMTE1OSAxNzQ2LjVDMTE2Mi41OSAxNzQ2LjUgMTE2NS41IDE3NDkuNDEgMTE2NS41IDE3NTNMMTE2NS41IDE3NzlDMTE2NS41IDE3ODIuNTkgMTE2Mi41OSAxNzg1LjUgMTE1OSAxNzg1LjVMMTEzMSAxNzg1LjVDMTEyNy40MSAxNzg1LjUgMTEyNC41IDE3ODIuNTkgMTEyNC41IDE3NzlMMTEyNC41IDE3NTNDMTEyNC41IDE3NDkuNDEgMTEyNy40MSAxNzQ2LjUgMTEzMSAxNzQ2LjVaIi8+PHRleHQgdHJhbnNmb3JtPSJ0cmFuc2xhdGUoMTAxNC42NSAxNjY0KSIgZm9udC1zaXplPSIzMiIgZm9udC13ZWlnaHQ9IjQwMCIgZm9udC1mYW1pbHk9IkNvbWljIFNhbnMgTVMsQ29taWMgU2FucyBNU19NU0ZvbnRTZXJ2aWNlLHNhbnMtc2VyaWYiPlNoaWZ0ZWQgRmVhdHVyZXM8L3RleHQ+PHBhdGggZmlsbC1ydWxlPSJldmVub2RkIiBmaWxsPSIjQjBEREYwIiBzdHJva2UtbWl0ZXJsaW1pdD0iOCIgc3Ryb2tlLXdpZHRoPSIzIiBzdHJva2U9IiM0NDcyQzQiIGQ9Ik0xNDg5LjUgODMwQzE0ODkuNSA4MjEuOTkyIDE0OTUuOTkgODE1LjUgMTUwNCA4MTUuNUwxNjkzIDgxNS41QzE3MDEuMDEgODE1LjUgMTcwNy41IDgyMS45OTIgMTcwNy41IDgzMEwxNzA3LjUgODg4QzE3MDcuNSA4OTYuMDA4IDE3MDEuMDEgOTAyLjUgMTY5MyA5MDIuNUwxNTA0IDkwMi41QzE0OTUuOTkgOTAyLjUgMTQ4OS41IDg5Ni4wMDggMTQ4OS41IDg4OFoiLz48dGV4dCB0cmFuc2Zvcm09InRyYW5zbGF0ZSgxNTUwLjk1IDg2OSkiIGZvbnQtc2l6ZT0iMzIiIGZvbnQtd2VpZ2h0PSI0MDAiIGZvbnQtZmFtaWx5PSJDb21pYyBTYW5zIE1TLENvbWljIFNhbnMgTVNfTVNGb250U2VydmljZSxzYW5zLXNlcmlmIj5RdWVyeTwvdGV4dD48cGF0aCBmaWxsLXJ1bGU9ImV2ZW5vZGQiIGZpbGw9Im5vbmUiIHN0cm9rZS1taXRlcmxpbWl0PSI4IiBzdHJva2Utd2lkdGg9IjMiIHN0cm9rZT0iIzAwMDAwMCIgZD0iTTE1OTUuNSA5MTAuNSAxNTk1LjUgOTUxLjk4MyIvPjxwYXRoIGZpbGwtcnVsZT0iZXZlbm9kZCIgZmlsbD0iI0UyRjBEOSIgc3Ryb2tlLW1pdGVybGltaXQ9IjgiIHN0cm9rZS13aWR0aD0iMyIgc3Ryb2tlPSIjQTlEMThFIiBkPSJNMTQ4OS41IDk3Mi44MzRDMTQ4OS41IDk2NC4zNjUgMTQ5Ni4zNyA5NTcuNSAxNTA0LjgzIDk1Ny41TDE2OTYuMTcgOTU3LjVDMTcwNC42MyA5NTcuNSAxNzExLjUgOTY0LjM2NSAxNzExLjUgOTcyLjgzNEwxNzExLjUgMTAzNC4xN0MxNzExLjUgMTA0Mi42MyAxNzA0LjYzIDEwNDkuNSAxNjk2LjE3IDEwNDkuNUwxNTA0LjgzIDEwNDkuNUMxNDk2LjM3IDEwNDkuNSAxNDg5LjUgMTA0Mi42MyAxNDg5LjUgMTAzNC4xN1oiLz48dGV4dCB0cmFuc2Zvcm09InRyYW5zbGF0ZSgxNTMyLjM5IDk5NSkiIGZvbnQtc2l6ZT0iMzIiIGZvbnQtd2VpZ2h0PSI0MDAiIGZvbnQtZmFtaWx5PSJDb21pYyBTYW5zIE1TLENvbWljIFNhbnMgTVNfTVNGb250U2VydmljZSxzYW5zLXNlcmlmIj5MYW5ndWFnZTwvdGV4dD48dGV4dCB0cmFuc2Zvcm09InRyYW5zbGF0ZSgxNTM5LjE0IDEwMzQpIiBmb250LXNpemU9IjMyIiBmb250LXdlaWdodD0iNDAwIiBmb250LWZhbWlseT0iQ29taWMgU2FucyBNUyxDb21pYyBTYW5zIE1TX01TRm9udFNlcnZpY2Usc2Fucy1zZXJpZiI+RW5jb2RlcjwvdGV4dD48cGF0aCBkPSJNMTU5OCAxMDU2LjUgMTU5OCAxMTA0LjIgMTU5NSAxMTA0LjIgMTU5NSAxMDU2LjVaTTE2MDMuMDUgMTA5NS45NSAxNTk2LjUgMTEwNy4xNyAxNTg5Ljk1IDEwOTUuOTVDMTU4OS41NCAxMDk1LjI0IDE1ODkuNzggMTA5NC4zMiAxNTkwLjQ5IDEwOTMuOSAxNTkxLjIxIDEwOTMuNDggMTU5Mi4xMyAxMDkzLjczIDE1OTIuNTUgMTA5NC40NEwxNTk3LjggMTEwMy40NCAxNTk1LjIgMTEwMy40NCAxNjAwLjQ1IDEwOTQuNDRDMTYwMC44NyAxMDkzLjczIDE2MDEuNzkgMTA5My40OCAxNjAyLjUxIDEwOTMuOSAxNjAzLjIyIDEwOTQuMzIgMTYwMy40NiAxMDk1LjI0IDE2MDMuMDUgMTA5NS45NVoiLz48cGF0aCBmaWxsLXJ1bGU9ImV2ZW5vZGQiIGZpbGw9IiNGQkY4RTkiIGQ9Ik0xNDA5IDE0MjhDMTQwOSAxNDA3LjU3IDE0MjUuNTcgMTM5MSAxNDQ2IDEzOTFMMTc1NCAxMzkxQzE3NzQuNDMgMTM5MSAxNzkxIDE0MDcuNTcgMTc5MSAxNDI4TDE3OTEgMTU3NkMxNzkxIDE1OTYuNDMgMTc3NC40MyAxNjEzIDE3NTQgMTYxM0wxNDQ2IDE2MTNDMTQyNS41NyAxNjEzIDE0MDkgMTU5Ni40MyAxNDA5IDE1NzZaIi8+PHBhdGggZmlsbC1ydWxlPSJldmVub2RkIiBmaWxsPSIjQjBEREYwIiBkPSJNMTU1My4xNyAxNDk2QzE1NTUuMjggMTQ5NiAxNTU3IDE0OTcuNzIgMTU1NyAxNDk5LjgzTDE1NTcgMTUxNS4xN0MxNTU3IDE1MTcuMjggMTU1NS4yOCAxNTE5IDE1NTMuMTcgMTUxOUwxNDk5LjgzIDE1MTlDMTQ5Ny43MiAxNTE5IDE0OTYgMTUxNy4yOCAxNDk2IDE1MTUuMTdMMTQ5NiAxNDk5LjgzQzE0OTYgMTQ5Ny43MiAxNDk3LjcyIDE0OTYgMTQ5OS44MyAxNDk2WiIvPjxwYXRoIGZpbGwtcnVsZT0iZXZlbm9kZCIgZmlsbD0iIzU0ODIzNSIgZD0iTTE2NTMuODMgMTU3MUMxNjU1LjU4IDE1NzEgMTY1NyAxNTcyLjQyIDE2NTcgMTU3NC4xN0wxNjU3IDE1ODYuODNDMTY1NyAxNTg4LjU4IDE2NTUuNTggMTU5MCAxNjUzLjgzIDE1OTBMMTYwMS4xNyAxNTkwQzE1OTkuNDIgMTU5MCAxNTk4IDE1ODguNTggMTU5OCAxNTg2LjgzTDE1OTggMTU3NC4xN0MxNTk4IDE1NzIuNDIgMTU5OS40MiAxNTcxIDE2MDEuMTcgMTU3MVoiLz48cGF0aCBmaWxsLXJ1bGU9ImV2ZW5vZGQiIGZpbGw9IiNBOUQxOEUiIGQ9Ik0xNjQ5LjUgMTQ5NUMxNjUxLjQzIDE0OTUgMTY1MyAxNDk2LjU3IDE2NTMgMTQ5OC41TDE2NTMgMTUxMi41QzE2NTMgMTUxNC40MyAxNjUxLjQzIDE1MTYgMTY0OS41IDE1MTZMMTYwMS41IDE1MTZDMTU5OS41NyAxNTE2IDE1OTggMTUxNC40MyAxNTk4IDE1MTIuNUwxNTk4IDE0OTguNUMxNTk4IDE0OTYuNTcgMTU5OS41NyAxNDk1IDE2MDEuNSAxNDk1WiIvPjxwYXRoIGZpbGwtcnVsZT0iZXZlbm9kZCIgZmlsbD0iI0UyRjFEOSIgZD0iTTE2NTAuMTcgMTQ1M0MxNjUxLjczIDE0NTMgMTY1MyAxNDU0LjI3IDE2NTMgMTQ1NS44M0wxNjUzIDE0NjcuMTdDMTY1MyAxNDY4LjczIDE2NTEuNzMgMTQ3MCAxNjUwLjE3IDE0NzBMMTYwMC44MyAxNDcwQzE1OTkuMjcgMTQ3MCAxNTk4IDE0NjguNzMgMTU5OCAxNDY3LjE3TDE1OTggMTQ1NS44M0MxNTk4IDE0NTQuMjcgMTU5OS4yNyAxNDUzIDE2MDAuODMgMTQ1M1oiLz48dGV4dCB0cmFuc2Zvcm09InRyYW5zbGF0ZSgxNjE0LjIgMTU0NikiIGZvbnQtc2l6ZT0iMzIiIGZvbnQtd2VpZ2h0PSI0MDAiIGZvbnQtZmFtaWx5PSJDYWxpYnJpLENhbGlicmlfTVNGb250U2VydmljZSxzYW5zLXNlcmlmIj7igKY8L3RleHQ+PHRleHQgdHJhbnNmb3JtPSJ0cmFuc2xhdGUoMTQzMS42MiAxNDM3KSIgZm9udC1zaXplPSIzMiIgZm9udC13ZWlnaHQ9IjQwMCIgZm9udC1mYW1pbHk9IkNvbWljIFNhbnMgTVMsQ29taWMgU2FucyBNU19NU0ZvbnRTZXJ2aWNlLHNhbnMtc2VyaWYiPkNyb3NzPC90ZXh0Pjx0ZXh0IHRyYW5zZm9ybT0idHJhbnNsYXRlKDE1MTQuMTIgMTQzNykiIGZvbnQtc2l6ZT0iMzIiIGZvbnQtd2VpZ2h0PSI0MDAiIGZvbnQtZmFtaWx5PSJDb21pYyBTYW5zIE1TLENvbWljIFNhbnMgTVNfTVNGb250U2VydmljZSxzYW5zLXNlcmlmIj4tPC90ZXh0Pjx0ZXh0IHRyYW5zZm9ybT0idHJhbnNsYXRlKDE1MjcuNDYgMTQzNykiIGZvbnQtc2l6ZT0iMzIiIGZvbnQtd2VpZ2h0PSI0MDAiIGZvbnQtZmFtaWx5PSJDb21pYyBTYW5zIE1TLENvbWljIFNhbnMgTVNfTVNGb250U2VydmljZSxzYW5zLXNlcmlmIj5tb2RhbCBTaW1pbGFyaXR5PC90ZXh0PjxwYXRoIHRyYW5zZm9ybT0ibWF0cml4KDEgMCAwIC0xIDE1NzAuNSAxNDgzLjUpIiBmaWxsLXJ1bGU9ImV2ZW5vZGQiIGZpbGw9Im5vbmUiIHN0cm9rZS1taXRlcmxpbWl0PSI4IiBzdHJva2Utd2lkdGg9IjEuMzMzMzMiIHN0cm9rZT0iIzAwMDAwMCIgZD0iTTAgMCAxMi41NTU5IDIwIi8+PHBhdGggZmlsbC1ydWxlPSJldmVub2RkIiBmaWxsPSJub25lIiBzdHJva2UtbWl0ZXJsaW1pdD0iOCIgc3Ryb2tlLXdpZHRoPSIxLjMzMzMzIiBzdHJva2U9IiMwMDAwMDAiIGQ9Ik0xNTY3LjUgMTUwNy41IDE1OTEuNjMgMTUwNy41Ii8+PHBhdGggZmlsbC1ydWxlPSJldmVub2RkIiBmaWxsPSJub25lIiBzdHJva2UtbWl0ZXJsaW1pdD0iOCIgc3Ryb2tlLXdpZHRoPSIxLjMzMzMzIiBzdHJva2U9IiMwMDAwMDAiIGQ9Ik0xNTY1LjUgMTUyNy41IDE1ODguMyAxNTY0LjgzIi8+PHRleHQgdHJhbnNmb3JtPSJ0cmFuc2xhdGUoMTE1NS4wMSAxNTU5KSIgZm9udC1zaXplPSIzMiIgZm9udC13ZWlnaHQ9IjQwMCIgZm9udC1mYW1pbHk9IkNvbWljIFNhbnMgTVMsQ29taWMgU2FucyBNU19NU0ZvbnRTZXJ2aWNlLHNhbnMtc2VyaWYiPkxvY2FsaXphdGlvbjwvdGV4dD48cGF0aCBkPSJNMTEzNCAxNTAyLjUgMTEzNCAxNjE0LjM2IDExMzEgMTYxNC4zNiAxMTMxIDE1MDIuNVpNMTEzOS4wNSAxNjA2LjExIDExMzIuNSAxNjE3LjMzIDExMjUuOTUgMTYwNi4xMUMxMTI1LjU0IDE2MDUuNCAxMTI1Ljc4IDE2MDQuNDggMTEyNi40OSAxNjA0LjA2IDExMjcuMjEgMTYwMy42NCAxMTI4LjEzIDE2MDMuODkgMTEyOC41NSAxNjA0LjZMMTEzMy44IDE2MTMuNiAxMTMxLjIgMTYxMy42IDExMzYuNDUgMTYwNC42QzExMzYuODcgMTYwMy44OSAxMTM3Ljc5IDE2MDMuNjQgMTEzOC41MSAxNjA0LjA2IDExMzkuMjIgMTYwNC40OCAxMTM5LjQ2IDE2MDUuNCAxMTM5LjA1IDE2MDYuMTFaIi8+PHRleHQgdHJhbnNmb3JtPSJ0cmFuc2xhdGUoMTQ4OS43MyAxMTU3KSIgZm9udC1zaXplPSIzMiIgZm9udC13ZWlnaHQ9IjQwMCIgZm9udC1mYW1pbHk9IkNvbWljIFNhbnMgTVMsQ29taWMgU2FucyBNU19NU0ZvbnRTZXJ2aWNlLHNhbnMtc2VyaWYiPlRleHQgZmVhdHVyZXM8L3RleHQ+PHBhdGggZmlsbC1ydWxlPSJldmVub2RkIiBmaWxsPSJub25lIiBzdHJva2UtbWl0ZXJsaW1pdD0iOCIgc3Ryb2tlLXdpZHRoPSIzIiBzdHJva2U9IiMwMDAwMDAiIGQ9Ik0xNDYyLjUgMTY4OEMxNDYyLjUgMTcwOC43MSAxNDQ0LjU5IDE3MjUuNSAxNDIyLjUgMTcyNS41Ii8+PHBhdGggdHJhbnNmb3JtPSJtYXRyaXgoMSAwIDAgLTEgMTQ2Mi41IDE2ODcuMzMpIiBkPSJNMS41LTIuODIwODhlLTA2IDEuNTAwMSA1Mi44NTY1LTEuNDk5OSA1Mi44NTY1LTEuNSAyLjgyMDg4ZS0wNlpNNi41NDU3NSA0NC42MTI0IDAuMDAwMTA0OTQ4IDU1LjgzMzUtNi41NDU1OCA0NC42MTI0Qy02Ljk2MzAxIDQzLjg5NjgtNi43MjEzIDQyLjk3ODMtNi4wMDU3MyA0Mi41NjA5LTUuMjkwMTUgNDIuMTQzNS00LjM3MTY3IDQyLjM4NTItMy45NTQyNSA0My4xMDA4TDEuMjk1NzcgNTIuMTAwNy0xLjI5NTU3IDUyLjEwMDggMy45NTQ0MSA0My4xMDA3QzQuMzcxODMgNDIuMzg1MiA1LjI5MDMxIDQyLjE0MzUgNi4wMDU4OSA0Mi41NjA5IDYuNzIxNDcgNDIuOTc4MyA2Ljk2MzE3IDQzLjg5NjggNi41NDU3NSA0NC42MTI0WiIvPjxwYXRoIGZpbGwtcnVsZT0iZXZlbm9kZCIgZmlsbD0ibm9uZSIgc3Ryb2tlLW1pdGVybGltaXQ9IjgiIHN0cm9rZS13aWR0aD0iMyIgc3Ryb2tlPSIjMDAwMDAwIiBkPSJNMTMxNi41IDE3MjUuNSAxNDIyLjMgMTcyNS41Ii8+PHBhdGggZD0iTTE1OTIgMTMyMi41IDE1OTIgMTM3MC4yIDE1ODkgMTM3MC4yIDE1ODkgMTMyMi41Wk0xNTk3LjA1IDEzNjEuOTUgMTU5MC41IDEzNzMuMTcgMTU4My45NSAxMzYxLjk1QzE1ODMuNTQgMTM2MS4yNCAxNTgzLjc4IDEzNjAuMzIgMTU4NC40OSAxMzU5LjkgMTU4NS4yMSAxMzU5LjQ4IDE1ODYuMTMgMTM1OS43MyAxNTg2LjU1IDEzNjAuNDRMMTU5MS44IDEzNjkuNDQgMTU4OS4yIDEzNjkuNDQgMTU5NC40NSAxMzYwLjQ0QzE1OTQuODcgMTM1OS43MyAxNTk1Ljc5IDEzNTkuNDggMTU5Ni41MSAxMzU5LjkgMTU5Ny4yMiAxMzYwLjMyIDE1OTcuNDYgMTM2MS4yNCAxNTk3LjA1IDEzNjEuOTVaIi8+PHBhdGggZmlsbC1ydWxlPSJldmVub2RkIiBmaWxsPSIjREFFM0YzIiBkPSJNMTQ5OCAxNzM0LjVDMTQ5OCAxNzI2LjQ5IDE1MDQuNDkgMTcyMCAxNTEyLjUgMTcyMEwxNzUwLjUgMTcyMEMxNzU4LjUxIDE3MjAgMTc2NSAxNzI2LjQ5IDE3NjUgMTczNC41TDE3NjUgMTc5Mi41QzE3NjUgMTgwMC41MSAxNzU4LjUxIDE4MDcgMTc1MC41IDE4MDdMMTUxMi41IDE4MDdDMTUwNC40OSAxODA3IDE0OTggMTgwMC41MSAxNDk4IDE3OTIuNVoiLz48dGV4dCB0cmFuc2Zvcm09InRyYW5zbGF0ZSgxNTE2LjggMTc3NSkiIGZvbnQtc2l6ZT0iMzIiIGZvbnQtd2VpZ2h0PSI0MDAiIGZvbnQtZmFtaWx5PSJDb21pYyBTYW5zIE1TLENvbWljIFNhbnMgTVNfTVNGb250U2VydmljZSxzYW5zLXNlcmlmIj5SZXRyaWV2YWwgU2NvcmU8L3RleHQ+PHBhdGggZD0iTTE2MjggMTYyMC41IDE2MjggMTcwOS45NyAxNjI1IDE3MDkuOTcgMTYyNSAxNjIwLjVaTTE2MzMuMDUgMTcwMS43MiAxNjI2LjUgMTcxMi45NCAxNjE5Ljk1IDE3MDEuNzJDMTYxOS41NCAxNzAxLjAxIDE2MTkuNzggMTcwMC4wOSAxNjIwLjQ5IDE2OTkuNjcgMTYyMS4yMSAxNjk5LjI1IDE2MjIuMTMgMTY5OS41IDE2MjIuNTUgMTcwMC4yMUwxNjI3LjggMTcwOS4yMSAxNjI1LjIgMTcwOS4yMSAxNjMwLjQ1IDE3MDAuMjFDMTYzMC44NyAxNjk5LjUgMTYzMS43OSAxNjk5LjI1IDE2MzIuNTEgMTY5OS42NyAxNjMzLjIyIDE3MDAuMDkgMTYzMy40NiAxNzAxLjAxIDE2MzMuMDUgMTcwMS43MloiLz48L2c+PC9zdmc+;" parent="1" vertex="1">
          <mxGeometry x="480" y="68.28999999999999" width="306.8" height="385.92" as="geometry" />
        </mxCell>
        <mxCell id="pivk6OYlCFR4I5AR-CvG-1" value="" style="rounded=0;whiteSpace=wrap;html=1;" parent="1" vertex="1">
          <mxGeometry x="344" y="80" width="120" height="60" as="geometry" />
        </mxCell>
        <mxCell id="OAVBk8aF4F6DvfkWOzso-1" value="&lt;font face=&quot;Comic Sans MS&quot;&gt;Queries&lt;/font&gt;" style="text;html=1;whiteSpace=wrap;strokeColor=none;fillColor=none;align=center;verticalAlign=middle;rounded=0;" vertex="1" parent="1">
          <mxGeometry x="60" y="560" width="60" height="30" as="geometry" />
        </mxCell>
        <mxCell id="OAVBk8aF4F6DvfkWOzso-2" value="&lt;font face=&quot;Comic Sans MS&quot;&gt;Image Gallery&lt;/font&gt;" style="text;html=1;whiteSpace=wrap;strokeColor=none;fillColor=none;align=center;verticalAlign=middle;rounded=0;" vertex="1" parent="1">
          <mxGeometry x="130" y="560" width="80" height="30" as="geometry" />
        </mxCell>
        <mxCell id="OAVBk8aF4F6DvfkWOzso-3" value="&lt;font face=&quot;Comic Sans MS&quot;&gt;Spotting&lt;/font&gt;" style="rounded=0;whiteSpace=wrap;html=1;sketch=1;curveFitting=1;jiggle=2;" vertex="1" parent="1">
          <mxGeometry x="140" y="620" width="60" height="30" as="geometry" />
        </mxCell>
        <mxCell id="OAVBk8aF4F6DvfkWOzso-4" value="" style="shape=flexArrow;endArrow=classic;html=1;rounded=0;sketch=1;curveFitting=1;jiggle=2;width=1.9642857142857144;endSize=2.125;endWidth=5.2976893236633495;strokeWidth=0.5;" edge="1" parent="1">
          <mxGeometry width="50" height="50" relative="1" as="geometry">
            <mxPoint x="169.84" y="597" as="sourcePoint" />
            <mxPoint x="169.84" y="612" as="targetPoint" />
          </mxGeometry>
        </mxCell>
        <mxCell id="OAVBk8aF4F6DvfkWOzso-6" value="" style="rounded=0;whiteSpace=wrap;html=1;sketch=1;curveFitting=1;jiggle=2;direction=south;" vertex="1" parent="1">
          <mxGeometry x="75" y="608" width="30" height="60" as="geometry" />
        </mxCell>
        <mxCell id="OAVBk8aF4F6DvfkWOzso-7" value="" style="shape=flexArrow;endArrow=classic;html=1;rounded=0;sketch=1;curveFitting=1;jiggle=2;width=1.9642857142857144;endSize=2.125;endWidth=5.2976893236633495;strokeWidth=0.5;" edge="1" parent="1">
          <mxGeometry width="50" height="50" relative="1" as="geometry">
            <mxPoint x="89.91" y="588" as="sourcePoint" />
            <mxPoint x="89.91" y="603" as="targetPoint" />
          </mxGeometry>
        </mxCell>
      </root>
    </mxGraphModel>
  </diagram>
</mxfile>
